<svg width="105" height="105" viewBox="0 0 105 105" fill="none" xmlns="http://www.w3.org/2000/svg">
<path d="M82.0312 33.4688V13.9453C82.03 12.8579 81.5975 11.8154 80.8286 11.0464C80.0596 10.2775 79.0171 9.845 77.9297 9.84375H27.0703C25.9829 9.845 24.9404 10.2775 24.1714 11.0464C23.4025 11.8154 22.97 12.8579 22.9688 13.9453V33.4688L3.28125 47.5301V101.719H101.719V47.5301L82.0312 33.4688ZM93.0396 49.3966L82.0312 56.5934V41.5324L93.0396 49.3966ZM29.5312 16.4062H75.4688V60.8842L63.7453 68.5496L54.1931 63.5966L43.7825 68.6224L29.5312 59.97V16.4062ZM54.0881 70.9345L95.1562 92.2292V95.1562H9.84375V92.294L54.0881 70.9345ZM9.84375 55.6941L36.7385 72.0234L9.84375 85.0067V55.6941ZM70.4333 72.0183L95.1562 55.8524V84.8369L70.4333 72.0183ZM22.9688 41.5324V55.9863L12.0311 49.3449L22.9688 41.5324Z" fill="#BF503F"/>
</svg>
