<svg width="151" height="122" viewBox="0 0 151 122" fill="none" xmlns="http://www.w3.org/2000/svg">
<path d="M150.818 90.7658C150.545 87.6885 149.736 84.5331 148.414 81.4029C146.194 76.2044 142.792 71.218 138.015 66.1505C130.665 58.4122 121.204 51.4883 109.091 44.9904C98.3842 39.3783 87.7802 34.0636 77.5599 29.173C67.5339 24.3781 57.0559 19.5758 45.5337 14.483C39.5912 11.8548 34.3067 9.56195 29.3709 7.45828C26.9191 6.41907 24.3237 5.34964 21.1909 4.08843L17.0544 2.46155L14.9205 1.66951L13.7754 1.2836L13.1019 1.08181C13.0666 1.0692 13.0313 1.06416 12.996 1.04902L12.6227 0.960741C12.5773 0.94813 12.5344 0.943085 12.489 0.935518C12.3578 0.902727 12.2645 0.892642 12.0753 0.864893C11.9416 0.852282 11.8281 0.83967 11.6062 0.83967C11.5759 0.83967 11.5481 0.834625 11.5204 0.834625C11.2631 0.834625 10.5897 0.872459 9.83295 1.23315L9.56559 1.35422C9.34615 1.46268 9.15193 1.60141 8.98294 1.77293L8.76854 1.99489C7.70162 3.07194 6.99786 4.15403 6.39502 5.15534C5.78967 6.1819 5.25495 7.27664 4.79585 8.41671C3.90295 10.654 3.33795 12.9897 3.11596 15.3659C2.66194 20.0599 3.65825 24.9735 5.91571 29.1984C7.84026 32.8709 10.7232 36.3619 14.4714 39.5602C14.5219 39.603 14.5698 39.6484 14.6202 39.6863C13.5558 39.8074 12.5444 39.9713 11.5707 40.1933C8.9601 40.8264 6.84139 41.7571 5.06064 43.0511C2.9015 44.6099 1.25699 46.8396 0.432153 49.3342C-0.0521325 50.7467 -0.135369 52.4568 0.212716 53.9955C0.48513 55.2365 0.994612 56.4724 1.77154 57.7386C3.22187 60.0869 5.09341 61.8551 6.3798 62.9775C9.33846 65.4847 12.7462 67.669 17.1322 69.8608C20.7265 71.6542 24.5805 73.1852 28.8939 74.5221C27.1611 75.1375 25.62 75.985 24.3134 77.0621C22.8403 78.2577 21.6119 79.8694 20.7619 81.7107C20.0431 83.2418 19.584 84.967 19.3595 86.9672C19.188 88.6143 19.1653 90.2033 19.2964 91.9967C19.4352 94.0373 20.2524 96.1838 21.5464 97.8813C22.5603 99.256 23.8846 100.497 25.577 101.662C28.0186 103.309 30.7251 104.576 34.3672 105.779C39.4446 107.393 45.0692 108.515 52.0817 109.307C57.2146 109.908 62.6423 110.263 69.6748 110.453C71.7002 110.503 73.7988 110.528 75.9226 110.528C79.4993 110.528 83.1921 110.458 87.2 110.314C91.7049 110.18 96.424 109.915 101.958 109.484C102.104 109.764 102.25 110.036 102.402 110.301C104.16 113.399 106.559 116.027 109.33 117.888C112.165 119.828 115.523 121.074 119.033 121.5C119.949 121.609 120.89 121.664 121.828 121.664C124.295 121.664 126.769 121.283 129.181 120.529C132.326 119.561 135.295 118.065 138.012 116.09C140.814 114.037 143.117 111.86 145.049 109.421C147.208 106.692 148.792 103.746 149.758 100.666C150.747 97.5355 151.117 94.1079 150.817 90.7657L150.818 90.7658ZM107.146 93.1721C108.17 90.9676 109.757 89.1742 111.618 88.1249C112.98 87.3456 114.633 86.9343 116.411 86.9343C117.014 86.9343 117.637 86.9772 118.252 87.0731C119.43 87.2496 120.371 87.6053 121.044 88.1249C121.705 88.6319 122.184 89.4037 122.399 90.3168C122.644 91.2853 122.669 92.4128 122.492 93.7824C122.323 95.0562 122.01 96.3098 121.554 97.5129C121.17 98.5319 121.642 99.6721 122.633 100.116L122.939 100.255C123.214 100.381 123.504 100.439 123.786 100.439C124.571 100.439 125.317 99.9898 125.665 99.2281C127.317 95.5808 127.875 92.3293 127.368 89.2976C127.015 87.2319 125.943 85.2998 124.419 83.9957C123.087 82.838 121.35 82.0208 119.266 81.5693C118.121 81.317 116.93 81.1884 115.745 81.1884C113.281 81.1884 110.867 81.7534 108.778 82.8228C105.731 84.3488 103.116 87.0477 101.431 90.41C99.8443 93.578 99.1027 97.0815 99.2843 100.532C99.3398 101.458 99.4559 102.363 99.6375 103.218C99.7258 103.655 99.8367 104.079 99.9729 104.543L100.016 104.689C100.016 104.694 100.016 104.702 100.021 104.702L87.1847 104.328C81.2295 104.106 75.443 103.816 70.0029 103.448C64.1309 103.062 58.4104 102.51 52.9974 101.801C50.3338 101.453 47.6147 101.001 44.689 100.439C41.6571 99.8562 39.0515 99.2181 36.7131 98.4765C33.6207 97.4953 31.4717 96.557 29.7387 95.4371C27.7461 94.1457 26.6766 92.7635 26.5555 91.3459C26.3008 88.584 26.5303 86.2408 27.2265 84.5511C28.0816 82.3718 29.9809 81.2897 31.4262 80.7575C33.4062 80.016 35.8604 79.5846 38.9429 79.4207C39.9721 79.3702 41.0365 79.345 42.1993 79.345C43.6723 79.345 45.2992 79.3828 47.3196 79.4787C49.8495 79.5922 52.4374 79.7561 54.9397 79.915C58.1026 80.1168 61.3741 80.3262 64.6202 80.4346H64.7312C65.8334 80.4346 66.7491 79.5746 66.7995 78.4697L66.8474 77.4482C66.8953 76.3157 66.0226 75.3522 64.8901 75.2942C57.4192 74.9335 49.7055 73.6673 41.9621 71.546C38.1004 70.4942 34.3827 69.2961 30.9094 67.987C28.9016 67.2505 27.1486 66.5543 25.5268 65.8582C23.5821 65.0485 21.877 64.2767 20.3005 63.4922C16.2749 61.5097 13.281 59.6658 10.8595 57.6833C9.32344 56.4347 8.21107 55.277 7.4519 54.1369C6.92978 53.3373 6.34966 52.172 6.62461 51.211C6.9626 49.9625 7.7395 48.7972 8.81901 47.9043C9.88341 46.9988 11.3086 46.2647 13.0741 45.6997C15.3997 44.938 18.0532 44.5143 21.1837 44.4184C22.5357 45.2684 23.87 46.0402 25.1512 46.7364C33.3182 51.1328 41.8895 53.8244 48.4422 55.6808C52.0314 56.6948 55.9563 57.6381 60.4512 58.5638C64.4667 59.3937 68.5374 60.1226 72.5454 60.7229C72.6463 60.7355 72.7472 60.7431 72.8506 60.7431C73.8242 60.7431 74.6869 60.052 74.871 59.0632L74.934 58.7328C75.1383 57.6431 74.4422 56.5863 73.3626 56.3442C64.6881 54.3944 57.0887 52.3463 50.1369 50.0938C41.8363 47.4075 34.7353 44.3682 28.4222 40.8091C24.7648 38.7181 21.7203 36.5641 19.1297 34.2409C16.1534 31.5673 13.9236 28.7423 12.4982 25.8415C10.9369 22.6735 10.2988 19.3165 10.6519 16.1306C10.8259 14.4633 11.2371 12.849 11.8777 11.3104C12.1854 10.5562 12.5562 9.82728 12.9573 9.16394L14.3168 9.66336L18.3399 11.2398L26.4217 14.534C31.3831 16.567 36.6724 18.7765 42.5846 21.2914C52.4569 25.5036 62.9724 30.0892 74.7392 35.3027L74.8931 35.3734C85.3382 40.022 96.1435 44.8299 106.571 49.9168C111.84 52.5022 116.817 55.4205 121.347 58.601C126.276 62.0516 130.599 65.7898 134.198 69.7041C138.375 74.3023 141.359 78.9584 143.062 83.5314C145.075 88.8005 145.269 94.1405 143.622 98.5946C141.654 104.068 137.26 108.016 133.923 110.364C131.63 111.935 129.327 113.076 127.098 113.741C125.257 114.291 123.413 114.571 121.622 114.571C121.019 114.571 120.419 114.539 119.836 114.475C117.44 114.216 115.15 113.391 113.215 112.092C111.263 110.8 109.563 108.994 108.294 106.866C107.661 105.806 107.126 104.674 106.695 103.496C106.584 103.203 106.493 102.913 106.395 102.62C106.299 102.315 106.221 102.05 106.163 101.786C106.031 101.241 105.946 100.676 105.903 100.101C105.711 97.77 106.152 95.3184 107.146 93.1721L107.146 93.1721Z" fill="#BF503F"/>
</svg>
