<svg width="152" height="122" viewBox="0 0 152 122" fill="none" xmlns="http://www.w3.org/2000/svg">
<path d="M1.97304 100.671C2.93909 103.75 4.52309 106.694 6.68223 109.426C8.61434 111.865 10.9172 114.044 13.7192 116.095C16.4332 118.07 19.4046 119.566 22.55 120.534C24.9639 121.288 27.4358 121.669 29.9028 121.669C30.8411 121.669 31.7819 121.611 32.6975 121.505C36.2086 121.082 39.566 119.833 42.4006 117.893C45.1752 116.032 47.5714 113.404 49.3317 110.306C49.4831 110.039 49.6294 109.769 49.7757 109.489C55.3096 109.92 60.029 110.185 64.5335 110.319C68.5439 110.465 72.2369 110.533 75.8109 110.533C77.9372 110.533 80.0333 110.508 82.0587 110.458C89.0886 110.268 94.519 109.913 99.6518 109.312C106.664 108.52 112.288 107.401 117.366 105.784C121.009 104.581 123.712 103.312 126.154 101.667C127.849 100.502 129.173 99.261 130.185 97.8863C131.476 96.1888 132.293 94.0398 132.434 92.0018C132.563 90.2084 132.54 88.6193 132.371 86.9722C132.147 84.972 131.688 83.2468 130.969 81.7157C130.119 79.8719 128.891 78.2626 127.418 77.0671C126.114 75.99 124.57 75.1425 122.837 74.5271C127.15 73.1903 131.004 71.6592 134.599 69.8658C138.985 67.6739 142.392 65.4896 145.351 62.9825C146.638 61.8626 148.509 60.0944 149.959 57.7436C150.736 56.4774 151.246 55.2415 151.518 54.0005C151.866 52.4594 151.783 50.7518 151.299 49.3392C150.471 46.8446 148.827 44.6149 146.67 43.0561C144.89 41.7621 142.771 40.8339 140.16 40.1983C139.184 39.9763 138.175 39.8124 137.111 39.6913C137.161 39.6535 137.209 39.6106 137.26 39.5652C141.008 36.3669 143.888 32.8762 145.815 29.2034C148.073 24.9785 149.069 20.0627 148.615 15.3709C148.393 12.9949 147.831 10.6592 146.938 8.42173C146.479 7.28166 145.944 6.18446 145.338 5.16036C144.738 4.15898 144.034 3.07689 142.967 1.99991L142.753 1.77794C142.584 1.60643 142.387 1.46769 142.17 1.35923L141.903 1.23816C141.146 0.877467 140.473 0.83963 140.216 0.83963C140.188 0.83963 140.16 0.844675 140.13 0.844675C139.908 0.844675 139.794 0.857287 139.661 0.869898C139.471 0.895122 139.378 0.90774 139.247 0.940533C139.202 0.9481 139.159 0.953145 139.113 0.965756L138.74 1.05404C138.702 1.06665 138.667 1.07169 138.634 1.08683L137.958 1.28861L136.813 1.67453L134.679 2.46656L130.542 4.09343C127.412 5.35458 124.814 6.42408 122.363 7.4633C117.429 9.5669 112.142 11.8597 106.202 14.488C94.6801 19.5806 84.2054 24.3804 74.1761 29.178C63.9558 34.0688 53.3519 39.3835 42.6446 44.9954C30.5323 51.4926 21.0713 58.4166 13.7211 66.1555C8.94136 71.2229 5.54123 76.2067 3.32191 81.4079C1.99768 84.5382 1.19052 87.691 0.918098 90.7708C0.605326 94.1078 0.976119 97.5359 1.97243 100.671L1.97304 100.671ZM45.8183 100.096C45.7755 100.671 45.6872 101.236 45.5585 101.781C45.5005 102.048 45.4223 102.313 45.3265 102.616C45.2281 102.908 45.1373 103.198 45.0263 103.491C44.595 104.669 44.0603 105.801 43.4272 106.861C42.1585 108.989 40.4558 110.793 38.5061 112.087C36.5715 113.386 34.2812 114.211 31.8824 114.471C31.2997 114.534 30.7019 114.566 30.0966 114.566C28.3032 114.566 26.4594 114.286 24.6206 113.736C22.3909 113.071 20.088 111.93 17.7954 110.359C14.4558 108.011 10.0643 104.063 8.09676 98.5896C6.44968 94.1378 6.64642 88.798 8.65672 83.5264C10.3618 78.9535 13.3457 74.2972 17.5204 69.6991C21.1223 65.7844 25.4453 62.0487 30.374 58.596C34.9066 55.4154 39.8809 52.4971 45.1499 49.9118C55.575 44.8268 66.3804 40.0195 76.828 35.3684L76.9819 35.2978C88.7462 30.0841 99.2642 25.4984 109.137 21.2864C115.046 18.7717 120.336 16.5621 125.299 14.529L133.381 11.2348L137.404 9.6584L138.761 9.15898C139.162 9.82484 139.533 10.5513 139.841 11.3055C140.482 12.8441 140.893 14.4609 141.067 16.1256C141.422 19.3113 140.782 22.6686 139.22 25.8365C137.795 28.7372 135.565 31.5622 132.587 34.2359C129.997 36.559 126.952 38.7131 123.297 40.8041C116.984 44.3631 109.884 47.4053 101.582 50.0889C94.6305 52.3438 87.0337 54.3894 78.3566 56.3392C77.277 56.5788 76.5809 57.6382 76.7852 58.7278L76.8482 59.0582C77.0324 60.047 77.8975 60.7381 78.8686 60.7381C78.9695 60.7381 79.0704 60.7331 79.1738 60.7179C83.1843 60.1176 87.253 59.3887 91.2681 58.5588C95.7628 57.6331 99.6875 56.6898 103.277 55.6758C109.83 53.8194 118.401 51.1281 126.568 46.7314C127.852 46.0353 129.186 45.2609 130.536 44.4134C133.666 44.5093 136.319 44.933 138.645 45.6948C140.411 46.2598 141.836 46.9937 142.9 47.8993C143.98 48.7922 144.757 49.9575 145.095 51.2061C145.37 52.1696 144.789 53.3349 144.267 54.1319C143.508 55.272 142.396 56.4323 140.86 57.6783C138.441 59.6609 135.444 61.5047 131.419 63.4872C129.842 64.2716 128.137 65.0435 126.192 65.8532C124.571 66.5493 122.815 67.2455 120.81 67.982C117.337 69.2936 113.618 70.4892 109.757 71.541C102.014 73.6623 94.3 74.9285 86.8291 75.2892C85.6941 75.3472 84.8238 76.3107 84.8718 77.4432L84.9197 78.4648C84.9702 79.567 85.8858 80.4297 86.988 80.4297H87.099C90.3452 80.3212 93.6168 80.1119 96.7795 79.9101C99.2817 79.7512 101.87 79.5872 104.4 79.4737C106.42 79.3779 108.049 79.34 109.52 79.34C110.683 79.34 111.747 79.3653 112.776 79.4157C115.859 79.5797 118.313 80.011 120.293 80.7525C121.738 81.2847 123.638 82.3668 124.493 84.5461C125.189 86.236 125.421 88.5793 125.164 91.3409C125.043 92.761 123.973 94.1407 121.98 95.4321C120.248 96.5521 118.096 97.4903 115.006 98.4715C112.668 99.213 110.062 99.8512 107.03 100.434C104.104 100.999 101.383 101.448 98.7219 101.796C93.309 102.505 87.5885 103.057 81.7163 103.443C76.2757 103.811 70.4893 104.101 64.5345 104.323L51.6984 104.697C51.7009 104.697 51.7009 104.689 51.7009 104.684L51.7438 104.538C51.88 104.076 51.991 103.652 52.0792 103.214C52.2634 102.358 52.3794 101.453 52.4349 100.527C52.614 97.0767 51.8749 93.5729 50.2859 90.405C48.6009 87.0428 45.9853 84.3439 42.9383 82.8179C40.8498 81.7458 38.4359 81.1834 35.9717 81.1834C34.7837 81.1834 33.5982 81.3121 32.4505 81.5643C30.3671 82.0133 28.6317 82.8305 27.2974 83.9908C25.7739 85.2973 24.6994 87.2269 24.3488 89.2927C23.8418 92.327 24.3993 95.5758 26.0514 99.2231C26.3969 99.9848 27.1435 100.434 27.9305 100.434C28.213 100.434 28.5006 100.378 28.7755 100.25L29.0807 100.111C30.072 99.667 30.5436 98.5269 30.1603 97.5079C29.7037 96.3048 29.391 95.0512 29.222 93.7775C29.0454 92.4104 29.0707 91.2829 29.3153 90.3118C29.5322 89.3987 30.009 88.6269 30.6698 88.1199C31.3433 87.6003 32.2841 87.2447 33.462 87.0681C34.075 86.9723 34.698 86.9294 35.3008 86.9294C37.0765 86.9294 38.7312 87.3405 40.0933 88.1199C41.9547 89.1717 43.5413 90.9626 44.5654 93.1671C45.5718 95.3186 46.0132 97.7703 45.819 100.096L45.8183 100.096Z" fill="#BF503F"/>
</svg>
