<svg width="105" height="105" viewBox="0 0 105 105" fill="none" xmlns="http://www.w3.org/2000/svg">
<path d="M40.1974 48.2738C39.2156 51.1303 39.2589 54.2395 40.3199 57.0675C40.9854 58.8418 42.0305 60.4492 43.3821 61.7773C44.7337 63.1054 46.3592 64.1222 48.1449 64.7564C49.9305 65.3907 51.8332 65.6271 53.7197 65.4492C55.6063 65.2712 57.4312 64.6832 59.0668 63.7263C61.6458 62.2157 63.6274 59.8649 64.6799 57.0675H52.9811V48.4138H73.9943C74.7329 52.3143 74.3972 56.3422 73.0232 60.0666C71.6491 63.791 69.2884 67.0719 66.1936 69.5581C63.467 71.7471 60.2553 73.2506 56.8278 73.9425C53.4003 74.6344 49.8569 74.4946 46.4946 73.5347C43.1323 72.5749 40.0491 70.8231 37.5034 68.426C34.9577 66.029 33.0237 63.0567 31.8635 59.7581C30.7033 56.4596 30.3508 52.931 30.8354 49.4681C31.32 46.0052 32.6277 42.709 34.6489 39.8557C36.67 37.0024 39.3457 34.6752 42.4516 33.0691C45.5576 31.463 49.0033 30.6249 52.4999 30.625C57.5998 30.62 62.5399 32.4035 66.4605 35.665L59.373 41.4663C57.7127 40.4325 55.8407 39.7865 53.8962 39.576C51.9517 39.3656 49.9848 39.5962 48.1417 40.2508C46.2987 40.9054 44.6269 41.967 43.2507 43.3568C41.8746 44.7466 40.8294 46.4287 40.193 48.2781H40.1974V48.2738Z" fill="#BA914F"/>
<path d="M52.5 87.5C61.7826 87.5 70.685 83.8125 77.2487 77.2487C83.8125 70.685 87.5 61.7826 87.5 52.5C87.5 43.2174 83.8125 34.315 77.2487 27.7513C70.685 21.1875 61.7826 17.5 52.5 17.5C43.2174 17.5 34.315 21.1875 27.7513 27.7513C21.1875 34.315 17.5 43.2174 17.5 52.5C17.5 61.7826 21.1875 70.685 27.7513 77.2487C34.315 83.8125 43.2174 87.5 52.5 87.5ZM52.5 96.25C28.3369 96.25 8.75 76.6631 8.75 52.5C8.75 28.3369 28.3369 8.75 52.5 8.75C76.6631 8.75 96.25 28.3369 96.25 52.5C96.25 76.6631 76.6631 96.25 52.5 96.25Z" fill="#BA914F"/>
</svg>
