<svg width="72" height="52" viewBox="0 0 72 52" fill="none" xmlns="http://www.w3.org/2000/svg">
<path d="M34.561 51.9997C27.0884 51.6786 20.0171 47.9821 14.8745 40.5896C14.5533 40.1877 14.1514 39.6255 13.6694 39.4647C5.9552 37.0539 1.69663 31.5096 0.411409 23.8762C-1.03581 15.68 1.29475 8.60907 8.04424 3.30576C13.3477 -0.872748 20.3383 -1.03302 26.0433 2.502C26.7664 2.98403 27.3291 3.06474 28.213 2.82317C33.4357 1.13546 38.7391 1.13546 43.9622 2.82317C44.4443 2.98403 45.1673 2.90332 45.6499 2.6623C53.3641 -1.91811 62.283 -0.230411 67.747 7.00108C74.6574 16.1613 72.9697 30.1428 63.9704 36.6514C62.4436 37.7763 60.5956 38.3391 58.9081 39.303C58.2652 39.7049 57.462 40.1068 57.0601 40.669C52.2382 47.7408 44.4438 51.9995 34.5612 51.9995L34.561 51.9997ZM36.007 2.74326C22.8291 2.74326 12.0618 13.511 11.9815 26.6885C11.9815 39.9465 22.6684 50.7944 35.9267 50.7944C49.1847 50.7944 59.9523 40.0273 59.9523 26.7688C59.9523 13.5909 49.2653 2.82361 36.007 2.74326ZM13.4278 38.0986C12.3831 35.929 12.2227 33.5182 9.89213 32.4741C9.4101 32.3132 9.08837 31.8312 8.68707 31.4293C2.98171 25.7239 2.33945 15.5997 7.40128 9.09113C10.8562 4.51071 16.6416 2.58267 21.9452 5.07347C22.2664 5.23433 22.6683 5.31449 22.99 5.15362C23.8739 4.75174 24.6777 4.26971 25.7218 3.70755C24.9181 3.30567 24.3559 2.90379 23.713 2.58264C17.6063 -0.0690171 10.6153 1.53787 6.27637 6.60029C-0.312874 14.3945 -0.39294 25.644 6.27637 33.3579C8.04414 35.6078 10.4549 37.134 13.4278 38.0986ZM58.6666 38.0179C61.0774 37.4552 64.1303 35.4463 65.8981 33.3574C70.5586 27.7329 71.9246 21.2243 69.9158 14.3137C67.9069 7.48345 63.5682 2.66269 56.1751 1.45696C52.7202 0.894217 49.4256 1.69798 46.4521 3.62664C46.6135 3.7875 46.6135 3.86766 46.6135 3.86766C47.2564 4.26954 47.9794 4.67142 48.6223 4.99257C49.1044 5.15344 49.7473 5.23359 50.1492 5.07272C54.6488 3.22474 58.8273 3.86766 62.5233 7.00134C70.5586 13.7509 69.5945 27.8128 60.8356 33.5179C60.5144 33.7589 60.1125 34.0806 59.9517 34.4819C59.5503 35.5267 59.1485 36.7324 58.6665 38.0176L58.6666 38.0179Z" fill="#BF503F"/>
<path d="M36.0878 45.5715C34.7219 45.4106 33.5162 44.6876 32.874 43.2415C32.5528 42.5185 32.2311 41.7955 32.2311 41.0718C32.1509 39.9469 31.9099 38.9828 31.1062 38.0989C30.8652 37.8579 31.026 37.2952 30.9453 36.8939C31.2665 37.1349 31.6684 37.2957 31.9094 37.6169C33.1951 39.3847 34.1593 39.4649 35.6059 37.8579C36.2488 37.1349 36.6507 37.2952 37.2936 37.9381C38.6595 39.4649 39.7043 39.3841 40.8293 37.6971C40.9094 37.5362 40.9901 37.3759 41.0703 37.2952C41.3113 37.1343 41.633 37.0542 41.9542 36.8933C41.9542 37.2145 42.1151 37.6163 41.9542 37.7772C40.5081 39.063 40.5081 40.8308 40.0256 42.4377C39.4628 44.3663 37.8559 45.5715 36.0881 45.5715L36.0878 45.5715ZM33.7573 43.0807C35.445 42.4378 36.8911 42.6788 38.3377 43.8844C38.7396 42.5185 39.1415 41.3129 39.3825 40.3488C38.1774 39.7059 37.2128 39.2238 36.4095 38.8219C35.4455 39.3039 34.3205 39.786 33.1149 40.3488C33.2752 41.0718 33.5163 41.9557 33.7573 43.0807Z" fill="#BF503F"/>
<path d="M21.7848 29.9026C21.7848 31.4295 20.5797 32.6345 19.1331 32.6345C17.6871 32.6345 16.4815 31.4294 16.4815 29.9828C16.4815 28.456 17.6865 27.251 19.1331 27.251C20.5792 27.251 21.7848 28.4566 21.7848 29.9026Z" fill="#BF503F"/>
<path d="M53.9261 27.251C55.453 27.251 56.658 28.5367 56.5778 30.0636C56.4976 31.5097 55.292 32.6352 53.8459 32.6352C52.3191 32.6352 51.1141 31.3494 51.1943 29.8225C51.2744 28.3759 52.4795 27.251 53.9261 27.251Z" fill="#BF503F"/>
<path d="M38.4983 34.322C37.8554 34.8041 37.1324 35.7681 36.4895 35.688C35.8466 35.6078 34.8018 34.6432 34.7217 33.9202C34.5608 32.9561 35.6858 32.8754 36.5697 32.8754C37.3734 32.8754 38.1772 32.9561 38.4983 34.322Z" fill="#BF503F"/>
</svg>
