<svg width="105" height="76" viewBox="0 0 105 76" fill="none" xmlns="http://www.w3.org/2000/svg">
<path d="M50.4014 75.8329C39.5039 75.3646 29.1915 69.9739 21.6919 59.1931C21.2235 58.6071 20.6375 57.7872 19.9345 57.5526C8.68467 54.037 2.47425 45.9515 0.599971 34.8194C-1.51055 22.8667 1.88817 12.5549 11.7312 4.8209C19.4654 -1.27276 29.66 -1.50649 37.9799 3.64875C39.0343 4.35171 39.855 4.46942 41.144 4.11712C48.7604 1.65588 56.4946 1.65588 64.1116 4.11712C64.8146 4.35171 65.869 4.234 66.5728 3.88252C77.8227 -2.79725 90.8294 -0.336016 98.7978 10.2099C108.875 23.5686 106.414 43.9582 93.2902 53.4499C91.0636 55.0905 88.3686 55.9112 85.9076 57.3169C84.97 57.903 83.7987 58.4891 83.2126 59.3089C76.1807 69.622 64.8138 75.8326 50.4018 75.8326L50.4014 75.8329ZM52.5103 4.00058C33.2925 4.00058 17.5901 19.7036 17.473 38.9207C17.473 58.2553 33.0581 74.0752 52.3931 74.0752C71.7276 74.0752 87.4304 58.3731 87.4304 39.0379C87.4304 19.8201 71.8452 4.11777 52.5103 4.00058ZM19.5822 55.5605C18.0586 52.3964 17.8248 48.8807 14.426 47.358C13.7231 47.1234 13.2539 46.4204 12.6686 45.8344C4.34832 37.5141 3.4117 22.7496 10.7935 13.2579C15.8319 6.57812 24.269 3.76639 32.0034 7.39881C32.4718 7.6334 33.0579 7.75029 33.527 7.5157C34.8161 6.92962 35.9883 6.22666 37.511 5.40685C36.3388 4.82077 35.519 4.23469 34.5815 3.76634C25.6759 -0.10065 15.4806 2.24273 9.15304 9.62543C-0.456275 20.992 -0.573037 37.3975 9.15304 48.6469C11.731 51.928 15.2467 54.1537 19.5822 55.5605ZM85.5555 55.4428C89.0712 54.6221 93.5234 51.6926 96.1014 48.6463C102.898 40.4438 104.89 30.952 101.961 20.8742C99.031 10.9134 92.7036 3.88309 81.922 2.12474C76.8836 1.30407 72.079 2.47622 67.7426 5.28885C67.978 5.52344 67.978 5.64033 67.978 5.64033C68.9156 6.22641 69.97 6.81248 70.9076 7.28083C71.6105 7.51543 72.5481 7.63232 73.1342 7.39772C79.6962 4.70275 85.7899 5.64033 91.1798 10.2103C102.898 20.0533 101.492 40.5603 88.7186 48.8802C88.2502 49.2317 87.6641 49.7009 87.4295 50.2862C86.8443 51.8098 86.2582 53.5681 85.5552 55.4424L85.5555 55.4428Z" fill="#BA914F"/>
<path d="M52.6281 66.4584C50.6361 66.2238 48.8778 65.1694 47.9412 63.0606C47.4728 62.0061 47.0037 60.9517 47.0037 59.8964C46.8868 58.2559 46.5353 56.8499 45.3632 55.5609C45.0117 55.2094 45.2463 54.3888 45.1286 53.8035C45.5969 54.155 46.183 54.3896 46.5345 54.858C48.4096 57.436 49.8156 57.553 51.9253 55.2095C52.8628 54.155 53.4489 54.3888 54.3865 55.3264C56.3785 57.553 57.9022 57.4352 59.5427 54.9749C59.6596 54.7403 59.7773 54.5065 59.8942 54.3888C60.2457 54.1542 60.7149 54.0373 61.1832 53.8027C61.1832 54.2711 61.4178 54.8572 61.1832 55.0918C59.0744 56.9669 59.0744 59.5449 58.3707 61.8883C57.55 64.7009 55.2065 66.4584 52.6285 66.4584L52.6281 66.4584ZM49.2294 62.826C51.6906 61.8884 53.7995 62.2399 55.9092 63.9981C56.4952 62.0061 57.0813 60.2479 57.4328 58.8419C55.6754 57.9044 54.2687 57.2014 53.0973 56.6153C51.6913 57.3182 50.0507 58.0212 48.2926 58.8419C48.5264 59.8964 48.8779 61.1854 49.2294 62.826Z" fill="#BA914F"/>
<path d="M31.7695 43.608C31.7695 45.8346 30.0121 47.5919 27.9025 47.5919C25.7936 47.5919 24.0355 45.8346 24.0355 43.7249C24.0355 41.4983 25.7929 39.741 27.9025 39.741C30.0113 39.741 31.7695 41.4992 31.7695 43.608Z" fill="#BA914F"/>
<path d="M78.6423 39.741C80.8689 39.741 82.6263 41.6161 82.5093 43.8428C82.3924 45.9516 80.6342 47.593 78.5253 47.593C76.2987 47.593 74.5413 45.7179 74.6583 43.4912C74.7752 41.3815 76.5326 39.741 78.6423 39.741Z" fill="#BA914F"/>
<path d="M56.1433 50.053C55.2058 50.7559 54.1513 52.1618 53.2138 52.045C52.2762 51.9281 50.7526 50.5213 50.6358 49.467C50.4012 48.061 52.0417 47.9433 53.3308 47.9433C54.5029 47.9433 55.675 48.061 56.1433 50.053Z" fill="#BA914F"/>
</svg>
