<svg width="372" height="269" viewBox="0 0 372 269" fill="none" xmlns="http://www.w3.org/2000/svg">
<path d="M178.654 269C139.88 267.76 103.582 248.322 77.1831 210.273C75.5344 207.792 73.4714 205.311 70.997 204.483C30.9861 192.076 9.12444 163.539 2.11221 123.838C-5.31103 81.6529 6.64968 44.8461 40.8864 17.5506C68.5228 -4.36855 104.822 -5.60852 134.933 13.0012C138.644 15.0696 141.533 15.4821 145.657 14.2417C172.881 5.55525 199.691 5.55525 226.916 14.2417C229.39 15.0696 233.516 15.0696 235.58 13.4137C276.002 -10.5733 321.376 -1.47475 349.838 35.7449C385.723 82.8917 377.062 155.266 330.862 189.179C322.613 195.381 312.712 198.69 303.637 203.239C300.337 204.892 297.037 206.961 294.974 209.857C270.638 247.08 230.216 269 178.654 269ZM185.666 262.795C253.724 262.795 309.824 207.377 309.824 139.138C310.238 70.4877 254.965 14.6537 186.491 14.2402C118.433 14.2402 62.3333 69.6576 62.3333 137.897C61.919 206.547 117.605 262.795 185.666 262.795ZM132.457 19.203C128.745 17.1346 125.857 15.0661 122.557 13.8257C90.7947 -0.650645 53.2609 8.44845 30.9853 35.332C9.94932 60.9725 2.11213 89.9245 7.88691 122.181C14.073 156.095 31.811 182.148 64.8104 195.797C66.0476 196.209 67.2849 196.209 68.9364 196.624C68.525 195.384 68.525 194.556 68.1107 194.144C64.399 182.564 57.7986 173.465 47.8982 165.194C14.8988 137.485 11.1871 81.6537 38.4118 46.5004C57.3875 22.1006 84.6093 14.6549 113.484 26.2348C115.133 27.0627 117.196 27.4753 118.847 26.6473C122.97 24.5789 127.508 22.0993 132.457 19.203ZM303.225 196.624C315.601 193.727 330.862 183.804 339.936 173.049C370.047 137.894 374.584 87.4403 350.248 48.1513C333.336 20.8551 309.412 5.55376 276.414 6.38164C263.213 6.79417 251.252 10.931 239.703 18.7894C244.24 21.2704 247.541 23.7514 251.663 24.9918C254.138 25.8197 257.438 26.2323 259.501 25.4043C283.014 15.893 304.05 19.202 323.437 35.3307C364.685 70.0697 360.148 142.858 314.773 172.635C313.125 173.876 311.473 175.116 310.647 177.185C308.173 183.387 306.11 190.005 303.224 196.623L303.225 196.624Z" fill="#929292"/>
<path d="M98.6325 141.207C106.47 141.207 112.656 147.41 112.656 155.268C112.656 162.711 106.47 168.916 99.0442 168.916C91.2063 168.916 85.0205 162.713 85.0205 154.855C85.0205 147.409 91.2095 141.207 98.6325 141.207Z" fill="#929292"/>
<path d="M278.888 168.916C271.05 168.916 264.864 162.714 264.864 154.856C264.864 147.413 271.05 141.208 278.476 141.208C286.314 141.208 292.5 147.41 292.5 155.269C292.5 162.711 286.311 168.916 278.888 168.916Z" fill="#929292"/>
<path d="M188.141 199.934C177.004 209.86 167.105 209.033 160.505 197.038C159.679 195.385 160.093 192.901 160.093 191.248C161.742 192.076 163.394 192.901 164.631 194.144C166.694 195.797 167.931 198.694 169.994 199.934C174.943 203.656 179.481 201.587 182.78 197.453C186.492 192.491 189.381 192.076 193.504 197.041C199.279 203.658 204.642 203.243 210.002 196.213C210.828 195.385 211.239 193.732 212.065 193.316C213.302 192.488 214.954 192.076 216.603 191.248C216.603 192.901 217.428 194.557 216.603 195.797C211.654 205.724 200.516 212.754 189.793 201.174C189.381 200.759 188.967 200.347 188.141 199.934Z" fill="#929292"/>
<path d="M188.966 170.157C193.092 170.157 198.867 170.57 198.041 175.947C197.215 179.668 191.855 184.218 188.141 184.633C185.252 185.046 181.129 179.671 179.066 175.947C177.829 173.051 182.78 170.157 188.966 170.157Z" fill="#929292"/>
</svg>
