<svg width="105" height="76" viewBox="0 0 105 76" fill="none" xmlns="http://www.w3.org/2000/svg">
<path d="M50.4266 75.7283C39.4822 75.3791 29.2369 69.907 21.7855 59.1957C21.3202 58.4972 20.7379 57.7988 20.0395 57.5657C8.74607 54.0727 2.57545 46.0393 0.596188 34.8625C-1.49908 22.9868 1.87693 12.625 11.5405 4.9408C19.3411 -1.22982 29.5869 -1.5789 38.0858 3.66006C39.1335 4.24236 39.9489 4.3585 41.1127 4.00928C48.7971 1.5639 56.3645 1.5639 64.0488 4.00928C64.7473 4.24236 65.9119 4.24236 66.4942 3.7762C77.9038 -2.97656 90.711 -0.41517 98.7445 10.0628C108.873 23.3355 106.429 43.7102 93.3884 53.2572C91.0601 55.0033 88.2654 55.9348 85.704 57.2155C84.7725 57.6809 83.841 58.2632 83.2587 59.0785C76.3897 69.5574 64.9803 75.7283 50.4266 75.7283ZM52.4057 73.9814C71.6157 73.9814 87.4502 58.3804 87.4502 39.1698C87.5672 19.8435 71.9661 4.12529 52.6386 4.00886C33.4286 4.00886 17.5941 19.6099 17.5941 38.8205C17.4771 58.1467 33.1951 73.9814 52.4057 73.9814ZM37.3871 5.40599C36.3394 4.82369 35.524 4.24139 34.5926 3.89219C25.6275 -0.183168 15.0333 2.37839 8.74584 9.94659C2.80828 17.1649 0.596167 25.3154 2.22614 34.3962C3.97221 43.9437 8.9789 51.2779 18.2933 55.1202C18.6425 55.2364 18.9917 55.2364 19.4579 55.3533C19.3417 55.0041 19.3417 54.771 19.2248 54.6549C18.1771 51.3949 16.3141 48.8335 13.5197 46.5052C4.2053 38.7046 3.15766 22.987 10.842 13.0907C16.1981 6.2217 23.8816 4.1256 32.0317 7.38556C32.4971 7.61864 33.0794 7.73477 33.5455 7.50169C34.7093 6.91939 35.9902 6.22135 37.3871 5.40599ZM85.5878 55.3531C89.0808 54.5377 93.3884 51.7441 95.9498 48.7164C104.449 38.8197 105.729 24.616 98.8605 13.5555C94.0867 5.87107 87.334 1.56348 78.0201 1.79655C74.294 1.91268 70.918 3.07728 67.6581 5.28956C68.9388 5.988 69.8704 6.68643 71.034 7.03563C71.7325 7.26871 72.664 7.38485 73.2463 7.15177C79.8831 4.47415 85.8204 5.40569 91.2927 9.94622C102.935 19.7259 101.655 40.2172 88.8473 48.5999C88.382 48.9492 87.9158 49.2984 87.6827 49.8807C86.9843 51.6268 86.402 53.4897 85.5875 55.3527L85.5878 55.3531Z" fill="#BA914F"/>
<path d="M27.8398 39.7524C30.0521 39.7524 31.7981 41.4985 31.7981 43.7107C31.7981 45.806 30.052 47.5528 27.956 47.5528C25.7437 47.5528 23.9977 45.8067 23.9977 43.5945C23.9977 41.4984 25.7446 39.7524 27.8398 39.7524Z" fill="#BA914F"/>
<path d="M78.7183 47.553C76.506 47.553 74.76 45.8069 74.76 43.5947C74.76 41.4994 76.5061 39.7526 78.6021 39.7526C80.8144 39.7526 82.5604 41.4987 82.5604 43.7109C82.5604 45.8062 80.8135 47.553 78.7183 47.553Z" fill="#BA914F"/>
<path d="M53.1044 56.285C49.9607 59.0795 47.1669 58.8464 45.3038 55.4696C45.0707 55.0043 45.1877 54.305 45.1877 53.8397C45.653 54.0728 46.1192 54.305 46.4684 54.6551C47.0507 55.1204 47.3999 55.9358 47.9822 56.285C49.3791 57.3327 50.6598 56.7504 51.5912 55.5866C52.6389 54.1897 53.4543 54.0728 54.6181 55.4704C56.2481 57.3335 57.7619 57.2165 59.2748 55.2374C59.5079 55.0043 59.624 54.5389 59.8571 54.422C60.2063 54.1889 60.6725 54.0728 61.1378 53.8397C61.1378 54.305 61.3709 54.7712 61.1378 55.1204C59.741 57.9149 56.5972 59.8941 53.5705 56.6342C53.4544 56.5173 53.3375 56.4011 53.1044 56.285Z" fill="#BA914F"/>
<path d="M53.3373 47.9023C54.5019 47.9023 56.1317 48.0184 55.8986 49.5322C55.6656 50.5799 54.1526 51.8605 53.1042 51.9776C52.2888 52.0937 51.125 50.5807 50.5428 49.5322C50.1936 48.7168 51.5913 47.9023 53.3373 47.9023Z" fill="#BA914F"/>
</svg>
