<svg width="72" height="52" viewBox="0 0 72 52" fill="none" xmlns="http://www.w3.org/2000/svg">
<path d="M34.5782 51.928C27.0735 51.6885 20.0481 47.9362 14.9387 40.5913C14.6196 40.1124 14.2203 39.6335 13.7414 39.4737C5.99731 37.0784 1.76602 31.5698 0.408815 23.9057C-1.02794 15.7623 1.28703 8.65712 7.9135 3.38798C13.2625 -0.843308 20.2882 -1.08267 26.116 2.50976C26.8344 2.90905 27.3935 2.98869 28.1916 2.74922C33.4609 1.07239 38.6499 1.07239 43.9192 2.74922C44.3981 2.90905 45.1967 2.90905 45.596 2.58939C53.4198 -2.04107 62.2018 -0.284688 67.7105 6.90023C74.656 16.0015 72.9798 29.9727 64.0378 36.5192C62.4412 37.7165 60.5249 38.3553 58.7685 39.2335C58.1297 39.5526 57.491 39.9519 57.0916 40.511C52.3815 47.6965 44.5579 51.928 34.5782 51.928ZM35.9353 50.7301C49.1079 50.7301 59.9659 40.0323 59.9659 26.8593C60.046 13.607 49.3481 2.82877 36.095 2.74894C22.9224 2.74894 12.0645 13.4468 12.0645 26.6198C11.9843 39.8721 22.7623 50.7301 35.9353 50.7301ZM25.6368 3.70696C24.9185 3.30767 24.3593 2.90838 23.7206 2.66893C17.5732 -0.125601 10.3086 1.6309 5.99715 6.82052C1.92568 11.7702 0.4088 17.3591 1.5265 23.586C2.7238 30.1328 6.15696 35.162 12.544 37.7967C12.7834 37.8764 13.0229 37.8764 13.3425 37.9566C13.2629 37.7171 13.2629 37.5573 13.1827 37.4776C12.4643 35.2422 11.1868 33.4858 9.27062 31.8893C2.88363 26.5403 2.16525 15.7625 7.43454 8.97647C11.1073 4.26631 16.376 2.82898 21.9646 5.06438C22.2837 5.22421 22.683 5.30385 23.0027 5.14402C23.8007 4.74472 24.679 4.26607 25.6368 3.70696ZM58.6888 37.9564C61.084 37.3973 64.0378 35.4817 65.7941 33.4055C71.622 26.6192 72.5002 16.8795 67.79 9.29517C64.5166 4.02588 59.8862 1.0721 53.4995 1.23192C50.9444 1.31155 48.6295 2.11014 46.3941 3.62713C47.2723 4.10605 47.9111 4.58498 48.709 4.82443C49.188 4.98426 49.8267 5.0639 50.2261 4.90407C54.777 3.06799 58.8483 3.70676 62.6007 6.82026C70.5843 13.5263 69.7061 27.5775 60.9239 33.3257C60.6048 33.5651 60.2851 33.8046 60.1253 34.2039C59.6464 35.4012 59.2471 36.6787 58.6885 37.9562L58.6888 37.9564Z" fill="#BF503F"/>
<path d="M19.0902 27.2588C20.6072 27.2588 21.8044 28.4561 21.8044 29.9731C21.8044 31.4098 20.6071 32.6076 19.1698 32.6076C17.6528 32.6076 16.4556 31.4103 16.4556 29.8934C16.4556 28.456 17.6534 27.2588 19.0902 27.2588Z" fill="#BF503F"/>
<path d="M53.9783 32.6078C52.4613 32.6078 51.264 31.4105 51.264 29.8935C51.264 28.4567 52.4613 27.2589 53.8986 27.2589C55.4156 27.2589 56.6129 28.4562 56.6129 29.9732C56.6129 31.41 55.415 32.6078 53.9783 32.6078Z" fill="#BF503F"/>
<path d="M36.4144 38.5954C34.2587 40.5116 32.343 40.3518 31.0655 38.0363C30.9056 37.7172 30.9858 37.2377 30.9858 36.9187C31.3049 37.0785 31.6246 37.2377 31.8641 37.4778C32.2633 37.7969 32.5028 38.356 32.9021 38.5954C33.8599 39.3138 34.7382 38.9145 35.3769 38.1165C36.0952 37.1587 36.6543 37.0785 37.4524 38.0369C38.5701 39.3144 39.6081 39.2342 40.6456 37.877C40.8054 37.7172 40.885 37.3981 41.0449 37.3179C41.2843 37.1581 41.604 37.0785 41.9231 36.9186C41.9231 37.2377 42.0829 37.5574 41.9231 37.7969C40.9652 39.7131 38.8095 41.0703 36.7341 38.8349C36.6544 38.7547 36.5743 38.6751 36.4144 38.5954Z" fill="#BF503F"/>
<path d="M36.5741 32.8473C37.3727 32.8473 38.4903 32.9269 38.3305 33.965C38.1707 34.6833 37.1332 35.5615 36.4143 35.6418C35.8552 35.7214 35.0572 34.6839 34.6579 33.965C34.4185 33.4058 35.3769 32.8473 36.5741 32.8473Z" fill="#BF503F"/>
</svg>
