<svg width="105" height="89" viewBox="0 0 105 89" fill="none" xmlns="http://www.w3.org/2000/svg">
<path fill-rule="evenodd" clip-rule="evenodd" d="M79.0975 57.3137C80.1731 60.4367 81.2681 63.5557 82.3055 66.6918C82.4633 67.1701 82.3508 67.7374 82.3637 68.2626C81.8393 68.2229 81.2647 68.3087 80.8002 68.1226C78.3093 67.1296 75.8474 66.0678 73.1282 64.9275C73.0902 67.1903 71.4716 69.2078 73.6963 71.4051C74.5769 72.2751 74.47 74.2206 74.6497 75.6951C74.8083 76.9875 74.7136 78.3099 74.784 79.617C74.8593 81.0089 74.2038 81.1311 73.1792 80.5776C71.4352 79.638 70.7045 78.0809 70.3798 76.1815C70.235 75.3358 69.8716 74.1607 69.2444 73.8313C66.7429 72.5251 65.2515 70.6921 65.3267 67.7034C65.1519 67.7163 64.9755 67.7277 64.799 67.7414C63.3431 74.4836 61.8872 81.2266 60.4305 87.9679C60.3131 87.9833 60.195 87.997 60.0768 88.0108C58.5028 81.8506 56.928 75.691 55.2422 69.0937C54.2354 70.3036 53.6681 71.4754 52.7343 72.0159C50.3122 73.4176 48.8108 75.262 48.6052 78.1162C48.5737 78.5573 48.2095 79.1044 47.834 79.3625C47.0053 79.9331 46.0738 80.3523 45.1844 80.8314C45.0848 80.0188 44.9562 79.2096 44.8963 78.3929C44.8477 77.7293 44.8874 77.0584 44.8874 76.3308C28.3756 81.2037 14.7183 77.6128 5.11353 63.0974C-2.21785 52.0207 -1.60274 37.279 6.55243 26.8974C17.0085 13.5904 30.5477 10.7011 46.5832 16.5717C46.1518 15.7737 45.7164 15.2582 45.5886 14.6755C45.2374 13.0731 44.942 11.4506 44.7963 9.81908C44.7639 9.44923 45.3612 8.85117 45.7966 8.67718C46.0434 8.57764 46.6293 9.05754 46.9255 9.39665C48.2762 10.9424 49.6681 12.4639 50.8586 14.1277C51.4849 15.0026 51.9875 16.1299 52.0782 17.1828C52.2254 18.8823 53.1076 19.6065 54.8823 20.017C56.5162 13.3274 58.1412 6.66688 59.7679 0.00323714C59.8772 0.0024277 59.9873 0.0024277 60.0973 0C61.5856 6.60853 63.0747 13.2173 64.5823 19.9157C66.3303 19.7304 67.1664 18.9988 67.5362 17.3009C67.8356 15.9316 68.649 14.6271 69.4388 13.4286C70.325 12.0828 71.4103 10.8606 72.4713 9.64036C72.8403 9.2171 73.3947 8.95813 73.8657 8.62553C74.2056 9.11272 74.8725 9.63471 74.8263 10.0814C74.6637 11.6442 74.2452 13.1793 73.9434 14.7292C73.7314 15.8258 73.156 17.0446 73.4376 18.0037C74.0421 20.0512 73.5201 21.6131 72.3588 23.2316C71.819 23.9834 71.6256 24.9837 71.2744 25.8706C71.4597 25.9993 71.6442 26.1279 71.8304 26.2566C75.4342 24.8064 79.0362 23.3561 83.0366 21.7458C81.7045 25.055 80.51 28.0234 79.3009 31.0275C80.3765 31.5414 81.3856 32.1435 82.4749 32.4866C82.9265 32.6283 83.6945 32.3644 84.0741 32.0181C85.5454 30.6722 87.2238 30.1656 89.1961 30.1219C90.8649 30.0863 92.5246 29.6995 94.1918 29.5036C94.5932 29.4559 95.2859 29.4267 95.3636 29.6024C95.5327 29.9803 95.5538 30.5978 95.3458 30.9434C94.2703 32.7262 93.1008 34.3626 90.6447 34.4103C89.965 34.4232 88.9809 34.967 88.6814 35.5481C87.5573 37.7268 86.332 39.5452 83.4663 39.13C83.2705 39.1009 83.0326 39.3461 82.3552 39.7127C90.1656 41.6388 97.5819 43.4669 104.998 45.2951C104.998 45.4181 104.998 45.5435 105 45.6665C97.9075 47.0925 90.8156 48.5194 83.5344 49.9849C84.1478 51.7783 85.1845 52.9121 86.9851 53.028C90.7572 53.2667 92.7649 56.1874 95.2471 58.3733C95.375 58.4866 94.9178 59.6771 94.7227 59.6795C93.0904 59.7014 91.3455 59.8883 89.8524 59.3849C88.2759 58.8524 86.896 58.3919 85.1787 58.7456C84.1922 58.9496 83.0212 58.4964 81.9886 58.1645C81.0822 57.8732 80.2543 57.3382 79.3908 56.9101C79.2945 57.0453 79.1958 57.1804 79.0978 57.3132L79.0975 57.3137ZM46.0259 70.5794C45.9166 70.5414 45.8057 70.4637 45.6989 70.4694C31.0386 71.1807 20.1892 60.2077 19.4765 47.6675C19.4522 47.2507 18.8445 46.6591 18.3904 46.5134C17.1644 46.1193 15.8759 45.9218 14.612 45.6467C15.7166 44.9968 16.7825 44.6642 17.8733 44.4991C19.1172 44.3122 19.4312 43.6477 19.7703 42.4573C20.667 39.3076 21.9262 36.2606 23.013 33.1627C23.361 32.1729 23.5933 31.1443 23.938 30.153C24.0424 29.8512 24.4139 29.3583 24.541 29.3939C26.064 29.8139 26.5286 28.4034 27.4648 27.8069C30.0287 26.177 32.6281 24.6012 35.2267 23.0282C35.8636 22.6429 36.537 22.1476 37.237 22.0643C40.1083 21.7212 42.9959 21.5156 46.568 21.2C45.6017 20.2118 45.07 19.2957 44.2827 18.9258C40.4984 17.1437 36.4651 16.3701 32.285 16.5174C19.5542 16.9689 10.5356 23.1317 5.33752 34.6364C0.488338 45.3684 2.86196 58.1241 11.4242 66.6681C20.2696 75.4949 30.8704 77.7666 42.7804 73.8982C44.4921 73.3422 45.7149 72.4463 46.0248 70.5808L46.0259 70.5794ZM76.2116 45.2603C76.3605 36.7864 69.3277 29.4227 60.912 29.2406C51.878 29.0447 44.4617 35.9568 44.3111 44.7117C44.1573 53.5814 51.1164 60.9606 59.8048 61.1402C68.8348 61.3256 76.0512 54.3415 76.2114 45.2605L76.2116 45.2603ZM22.5631 47.29C22.3591 47.443 22.1544 47.5976 21.9504 47.7505C22.9774 50.9214 24.0052 54.092 25.0322 57.2628C25.2507 57.2944 25.4684 57.3252 25.6869 57.3567C27.4415 54.3916 30.2626 53.5126 33.3201 52.8214C34.4038 52.5754 35.2446 51.2668 36.1964 50.4445C36.079 50.2794 35.9633 50.1151 35.846 49.95C31.4176 49.0622 26.99 48.1744 22.5632 47.2898L22.5631 47.29ZM25.9896 33.775C24.1549 36.5338 22.8463 39.5938 22.4918 43.3375C27.4518 42.1171 32.1183 40.9672 37.2128 39.7127C36.5111 39.3486 36.2756 39.1139 36.0781 39.1422C33.2383 39.5404 31.9928 37.7559 30.8711 35.5806C30.5717 34.9995 29.6451 34.6475 28.9321 34.395C28.0896 34.0915 27.1679 34.009 25.9896 33.7751V33.775ZM27.7595 60.4077C30.4138 63.3056 33.4641 65.3604 37.2548 66.572C38.3886 63.2775 39.4391 60.2231 40.6359 56.7472C39.4908 57.2393 38.8223 57.5493 38.137 57.8171C37.1731 58.1943 36.0692 59.0238 35.2479 58.8077C32.5156 58.0955 30.24 58.9971 27.7595 60.4077ZM73.846 10.9524C73.6914 10.9289 73.5361 10.9063 73.3823 10.8852C72.1732 12.2036 70.8856 13.4596 69.789 14.867C69.2516 15.5581 68.8227 16.5147 68.7774 17.3742C68.6819 19.1903 67.7237 20.2018 66.2306 20.9456C65.8292 21.1438 65.1599 21.5452 65.1931 21.7645C65.5378 23.9617 66.0032 26.142 66.4669 28.4864C68.062 27.7532 69.1819 27.2393 70.379 26.6882C69.8311 24.7491 70.5012 23.3224 71.6577 21.8365C72.2517 21.0717 72.3294 19.6046 72.1052 18.5701C71.7394 16.8771 71.8009 15.4617 72.7899 13.975C73.3637 13.1139 73.5085 11.9687 73.846 10.9522V10.9524ZM54.5348 21.3664C52.0835 20.6323 50.6389 19.3302 50.7085 16.777C50.7222 16.2631 50.4568 15.6391 50.1169 15.2393C48.805 13.7066 47.4099 12.2458 46.0454 10.7583C46.0212 11.973 46.2324 13.1336 46.8183 14.0545C47.736 15.4934 47.8089 16.8586 47.4584 18.4877C47.2343 19.5317 47.2691 20.986 47.8461 21.7725C48.9726 23.306 49.8847 24.7214 49.1005 26.6614C50.4326 27.2716 51.5493 27.7831 52.8411 28.3747C53.4197 25.9785 53.953 23.7714 54.5349 21.3663L54.5348 21.3664ZM26.1764 31.229C26.1125 31.4354 26.0478 31.641 25.9838 31.849C27.0602 32.2536 28.1503 32.6307 29.2112 33.071C29.9922 33.3955 31.109 33.6027 31.4375 34.2064C32.6491 36.4352 34.2127 37.5196 36.8105 38.2285C39.1841 38.876 40.89 38.1751 43.0558 37.87C42.5015 36.5744 42.0847 35.5393 41.621 34.526C40.6045 32.3125 40.2249 32.1579 38.1524 33.4286C36.7418 34.2921 35.6727 34.0307 34.4767 32.9786C33.7224 32.3142 32.7035 31.7372 31.7291 31.5794C29.9066 31.2872 28.0306 31.3277 26.1765 31.2289L26.1764 31.229ZM76.5412 37.7526C77.0098 37.9347 77.3472 38.0853 77.6952 38.1961C79.6941 38.833 81.5408 38.3054 83.5544 37.9598C85.7208 37.5883 86.4969 36.533 87.5473 35.0212C88.1947 34.0905 89.5778 33.6479 90.6678 33.0571C91.5912 32.5586 92.5704 32.1636 93.5246 31.7226C93.4412 31.5615 93.3579 31.3988 93.2737 31.2378C91.4172 31.3365 89.5518 31.356 87.7092 31.5769C86.95 31.6659 86.059 32.0131 85.5475 32.5488C84.0624 34.1091 82.6341 34.4215 80.8108 33.0951C79.7296 32.3093 78.7228 32.5011 78.1773 33.9457C77.7015 35.213 77.1107 36.4399 76.541 37.7525L76.5412 37.7526ZM72.7229 78.9208C73.0021 78.8585 73.2813 78.7953 73.5613 78.733C73.2902 76.5423 73.6317 73.9802 72.5854 72.2612C71.352 70.2348 70.9312 68.5936 71.5656 66.4093C71.7591 65.7433 71.5049 64.467 71.0283 64.1797C69.5732 63.3016 67.9092 62.7675 66.188 62.0399C65.7073 63.8827 64.7669 65.4389 66.1936 67.0899C66.5311 67.48 66.7019 68.1225 66.7237 68.6583C66.7982 70.5204 67.8478 71.6275 69.4203 72.3479C70.9483 73.0487 71.5528 74.244 71.7341 75.8772C71.8474 76.9163 72.3775 77.9068 72.723 78.9208L72.7229 78.9208ZM46.256 78.7023C46.4325 78.7549 46.6113 78.8075 46.7877 78.8601C47.1252 78.0273 47.7055 77.2067 47.7492 76.3586C47.8527 74.3435 48.8069 73.1418 50.44 71.9998C51.5325 71.2367 52.1071 69.7022 52.8484 68.4737C53.13 68.0059 53.092 67.3051 53.4368 66.9223C54.9655 65.2276 53.6099 63.7572 53.4416 62.0196C52.2916 62.4882 51.4289 62.8281 50.5751 63.189C47.4076 64.5292 47.4747 64.5171 48.2143 67.8369C48.4126 68.7279 48.4361 70.047 47.9246 70.641C45.8091 73.0987 46.2291 75.9126 46.2559 78.7023L46.256 78.7023ZM93.0884 59.0675C91.796 56.4034 89.9685 54.7362 87.2955 54.4514C85.1678 54.2239 83.7209 53.1727 82.6374 51.415C82.4132 51.0492 81.926 50.5539 81.6096 50.5863C80.1585 50.7368 78.7228 51.054 77.3235 51.3041C77.7484 53.9319 78.501 55.9979 81.3351 56.354C81.6831 56.3969 81.9817 56.7668 82.3337 56.8412C83.3826 57.0654 84.4428 57.2297 85.5021 57.3948C86.9442 57.6149 88.4051 57.7428 89.8294 58.0447C90.9397 58.2802 92.0048 58.7196 93.0883 59.0676L93.0884 59.0675ZM42.3777 51.3476C41.1411 51.1089 40.0525 50.9454 38.9885 50.6808C37.8886 50.4072 37.2234 50.6436 36.6383 51.7385C35.8144 53.2794 34.4337 54.1932 32.6024 54.3898C29.7529 54.6973 27.7402 56.2754 25.9931 59.1791C27.4344 58.7615 28.3959 58.3981 29.3912 58.2152C31.047 57.9093 32.762 57.8616 34.3838 57.444C36.6076 56.8694 38.7693 56.0601 40.9494 55.3229C41.0643 55.2832 41.1015 54.9968 41.1655 54.822C41.5466 53.7262 41.9295 52.6313 42.3778 51.3476L42.3777 51.3476ZM54.6279 28.0071C56.5151 27.6664 58.0293 27.392 59.5516 27.1161V8.86831C59.4521 8.85213 59.3534 8.83675 59.2522 8.81976C57.7316 15.1273 56.2125 21.4341 54.628 28.007L54.6279 28.0071ZM37.8409 25.1317C34.628 26.106 31.8748 27.5797 29.091 30.2123C32.0458 29.9493 34.1579 30.5797 35.8607 32.3829C36.0881 32.6232 36.8043 32.5941 37.2033 32.4444C38.2174 32.0648 39.1788 31.5453 40.2689 31.0322C39.4758 29.1053 38.6827 27.176 37.841 25.1318L37.8409 25.1317ZM23.6744 44.6954H41.5904C41.6867 43.0283 41.7612 41.7067 41.8445 40.2436C35.7044 41.7472 29.762 43.2048 23.6745 44.6954H23.6744ZM78.2842 44.6954H95.9137C89.8312 43.2112 83.8431 41.7495 77.6869 40.2475C77.8949 41.803 78.0672 43.0817 78.2841 44.6954H78.2842ZM24.7662 45.5897C24.7581 45.758 24.75 45.9247 24.7419 46.093C30.5373 47.2463 36.3324 48.3987 42.3107 49.5883C42.0412 47.9325 41.8268 46.6135 41.6601 45.5888C35.8688 45.5896 30.3171 45.5896 24.7662 45.5896L24.7662 45.5897ZM64.6581 27.6575C63.2694 21.4438 61.9348 15.4777 60.6037 9.51081C60.5252 9.52619 60.4467 9.54076 60.369 9.55613V27.1645C61.7917 27.328 63.0704 27.4753 64.6582 27.6574L64.6581 27.6575ZM94.6988 46.1091C94.715 45.9278 94.7312 45.7473 94.7474 45.566H78.208C78.0899 46.8261 77.9725 48.0894 77.8422 49.4813C83.5922 48.3313 89.1456 47.221 94.6988 46.109L94.6988 46.1091ZM55.2834 62.5877C56.6583 68.0414 57.9775 73.2799 59.2991 78.5169C59.3824 78.4975 59.4682 78.4765 59.5532 78.4562V63.1802C58.1442 62.9852 56.8195 62.8007 55.2835 62.5878L55.2834 62.5877ZM43.5252 52.428C41.9835 56.8831 40.5738 60.9545 39.1138 65.1702C41.8088 62.4591 44.3442 59.9075 46.9211 57.3136C45.9135 55.8609 44.8251 54.2967 43.5252 52.428ZM60.3957 63.163V79.4952C60.4766 79.4985 60.5591 79.5025 60.6401 79.5057C61.8087 73.993 62.9756 68.4792 64.1782 62.798C62.8381 62.9274 61.6874 63.0375 60.3956 63.1629L60.3957 63.163ZM80.1034 65.0333C80.1965 65.0122 80.2903 64.9912 80.3826 64.971C79.0708 61.207 77.7573 57.4446 76.3727 53.476C75.1264 55.1568 74.072 56.5795 73.0336 57.9796C75.4356 60.375 77.7703 62.7034 80.1035 65.0333L80.1034 65.0333ZM47.792 58.1875C45.0656 60.9513 42.4266 63.6251 39.6815 66.4067C43.6972 64.6335 47.6383 62.8936 51.7002 61.1011C50.2646 60.0312 49.0256 59.1054 47.7923 58.1877L47.792 58.1875ZM68.3705 61.3389C72.3044 63.0724 76.0603 64.7267 79.8867 66.4123C77.28 63.7562 74.7794 61.2086 72.247 58.6295C71.0525 59.4622 69.7998 60.3387 68.3705 61.3389ZM43.9008 35.6572C45.033 34.4336 45.9475 33.4438 46.5382 32.803C44.4414 30.4747 42.4181 28.2273 40.3942 25.979C40.2817 26.0518 40.17 26.1238 40.0575 26.1959C41.3022 29.2598 42.5469 32.3246 43.9008 35.6572V35.6572ZM75.659 35.6111C77.0016 32.3222 78.2521 29.2541 79.5032 26.187C79.4012 26.1174 79.2976 26.0478 79.1932 25.9782C77.1725 28.1803 75.1508 30.3832 73.113 32.6031C73.775 33.3849 74.6086 34.3714 75.659 35.6114L75.659 35.6111ZM41.9617 25.6844C43.4685 27.3758 45.4692 29.62 47.4842 31.8811C48.5362 30.9812 49.4597 30.1897 50.5877 29.2243C47.2882 27.8703 44.2276 26.6134 41.9615 25.6844H41.9617ZM68.9154 29.2251C70.2046 30.1881 71.1896 30.9238 72.401 31.8285C74.2817 29.6272 76.126 27.4697 77.6556 25.6803C75.2374 26.6611 72.2333 27.8799 68.9152 29.2249L68.9154 29.2251ZM46.5299 64.8761C44.5876 65.7048 42.9335 66.4073 41.2792 67.113C41.3084 67.2336 41.3375 67.3558 41.365 67.4764H46.682C46.6334 66.6307 46.5914 65.9064 46.5299 64.8761L46.5299 64.8761ZM48.074 26.4303C47.9373 25.6007 47.934 24.7437 47.7689 24.7121C46.4878 24.4629 45.1784 24.3731 43.8754 24.233C43.8649 24.386 43.8536 24.5406 43.8415 24.6935C45.0853 25.2034 46.3292 25.7132 48.0741 26.4303H48.074Z" fill="#BF503F"/>
</svg>
