<svg width="152" height="122" viewBox="0 0 152 122" fill="none" xmlns="http://www.w3.org/2000/svg">
<path d="M1.97304 100.505C2.93909 103.585 4.52309 106.529 6.68223 109.261C8.61434 111.7 10.9172 113.879 13.7192 115.93C16.4332 117.905 19.4046 119.4 22.55 120.369C24.9639 121.123 27.4358 121.504 29.9028 121.504C30.8411 121.504 31.7819 121.446 32.6975 121.34C36.2086 120.916 39.566 119.668 42.4006 117.728C45.1752 115.866 47.5714 113.238 49.3317 110.141C49.4831 109.873 49.6294 109.604 49.7757 109.324C55.3096 109.755 60.029 110.02 64.5335 110.153C68.5439 110.3 72.2369 110.368 75.8109 110.368C77.9372 110.368 80.0333 110.343 82.0587 110.292C89.0886 110.103 94.519 109.747 99.6518 109.147C106.664 108.355 112.288 107.235 117.366 105.618C121.009 104.415 123.712 103.147 126.154 101.502C127.849 100.337 129.173 99.0956 130.185 97.721C131.476 96.0234 132.293 93.8745 132.434 91.8364C132.563 90.043 132.54 88.4539 132.371 86.8068C132.147 84.8066 131.688 83.0814 130.969 81.5503C130.119 79.7065 128.891 78.0973 127.418 76.9017C126.114 75.8247 124.57 74.9772 122.837 74.3617C127.15 73.0249 131.004 71.4939 134.599 69.7004C138.985 67.5086 142.392 65.3242 145.351 62.8171C146.638 61.6972 148.509 59.929 149.959 57.5782C150.736 56.3121 151.246 55.0761 151.518 53.8351C151.866 52.294 151.783 50.5864 151.299 49.1738C150.471 46.6792 148.827 44.4495 146.67 42.8907C144.89 41.5968 142.771 40.6685 140.16 40.0329C139.184 39.8109 138.175 39.647 137.111 39.5259C137.161 39.4881 137.209 39.4452 137.26 39.3998C141.008 36.2015 143.888 32.7108 145.815 29.038C148.073 24.8131 149.069 19.8973 148.615 15.2055C148.393 12.8295 147.831 10.4938 146.938 8.25635C146.479 7.11628 145.944 6.01909 145.338 4.99498C144.738 3.99361 144.034 2.91152 142.967 1.83453L142.753 1.61257C142.584 1.44105 142.387 1.30231 142.17 1.19385L141.903 1.07278C141.146 0.712093 140.473 0.674255 140.216 0.674255C140.188 0.674255 140.16 0.6793 140.13 0.6793C139.908 0.6793 139.794 0.691912 139.661 0.704523C139.471 0.729747 139.378 0.742365 139.247 0.775158C139.202 0.782725 139.159 0.78777 139.113 0.800381L138.74 0.888663C138.702 0.901274 138.667 0.906319 138.634 0.921453L137.958 1.12324L136.813 1.50915L134.679 2.30118L130.542 3.92806C127.412 5.1892 124.814 6.25871 122.363 7.29792C117.429 9.40153 112.142 11.6943 106.202 14.3226C94.6801 19.4152 84.2054 24.215 74.1761 29.0126C63.9558 33.9034 53.3519 39.2182 42.6446 44.8301C30.5323 51.3272 21.0713 58.2512 13.7211 65.9901C8.94136 71.0575 5.54123 76.0413 3.32191 81.2425C1.99768 84.3728 1.19052 87.5257 0.918098 90.6054C0.605326 93.9425 0.976119 97.3706 1.97243 100.506L1.97304 100.505ZM45.8183 99.9303C45.7755 100.505 45.6872 101.07 45.5585 101.615C45.5005 101.883 45.4223 102.147 45.3265 102.45C45.2281 102.743 45.1373 103.033 45.0263 103.325C44.595 104.503 44.0603 105.636 43.4272 106.695C42.1585 108.824 40.4558 110.628 38.5061 111.922C36.5715 113.221 34.2812 114.045 31.8824 114.305C31.2997 114.368 30.7019 114.401 30.0966 114.401C28.3032 114.401 26.4594 114.121 24.6206 113.571C22.3909 112.905 20.088 111.765 17.7954 110.194C14.4558 107.845 10.0643 103.898 8.09676 98.4243C6.44968 93.9724 6.64642 88.6327 8.65672 83.361C10.3618 78.7881 13.3457 74.1318 17.5204 69.5337C21.1223 65.6191 25.4453 61.8833 30.374 58.4307C34.9066 55.25 39.8809 52.3317 45.1499 49.7464C55.575 44.6614 66.3804 39.8541 76.828 35.203L76.9819 35.1324C88.7462 29.9188 99.2642 25.333 109.137 21.121C115.046 18.6063 120.336 16.3967 125.299 14.3636L133.381 11.0695L137.404 9.49302L138.761 8.9936C139.162 9.65946 139.533 10.3859 139.841 11.1401C140.482 12.6787 140.893 14.2955 141.067 15.9602C141.422 19.1459 140.782 22.5032 139.22 25.6711C137.795 28.5718 135.565 31.3968 132.587 34.0706C129.997 36.3937 126.952 38.5477 123.297 40.6388C116.984 44.1978 109.884 47.2399 101.582 49.9235C94.6305 52.1785 87.0337 54.2241 78.3566 56.1738C77.277 56.4134 76.5809 57.4728 76.7852 58.5624L76.8482 58.8929C77.0324 59.8816 77.8975 60.5728 78.8686 60.5728C78.9695 60.5728 79.0704 60.5677 79.1738 60.5526C83.1843 59.9523 87.253 59.2233 91.2681 58.3934C95.7628 57.4677 99.6875 56.5244 103.277 55.5105C109.83 53.654 118.401 50.9627 126.568 46.566C127.852 45.8699 129.186 45.0955 130.536 44.248C133.666 44.3439 136.319 44.7676 138.645 45.5294C140.411 46.0944 141.836 46.8284 142.9 47.7339C143.98 48.6268 144.757 49.7921 145.095 51.0407C145.37 52.0042 144.789 53.1696 144.267 53.9666C143.508 55.1066 142.396 56.2669 140.86 57.5129C138.441 59.4955 135.444 61.3393 131.419 63.3218C129.842 64.1063 128.137 64.8781 126.192 65.6878C124.571 66.3839 122.815 67.0801 120.81 67.8167C117.337 69.1282 113.618 70.3239 109.757 71.3757C102.014 73.497 94.3 74.7631 86.8291 75.1238C85.6941 75.1818 84.8238 76.1454 84.8718 77.2779L84.9197 78.2994C84.9702 79.4016 85.8858 80.2643 86.988 80.2643H87.099C90.3452 80.1558 93.6168 79.9465 96.7795 79.7447C99.2817 79.5858 101.87 79.4218 104.4 79.3083C106.42 79.2125 108.049 79.1747 109.52 79.1747C110.683 79.1747 111.747 79.1999 112.776 79.2503C115.859 79.4143 118.313 79.8456 120.293 80.5871C121.738 81.1193 123.638 82.2014 124.493 84.3807C125.189 86.0707 125.421 88.4139 125.164 91.1756C125.043 92.5956 123.973 93.9753 121.98 95.2668C120.248 96.3867 118.096 97.325 115.006 98.3061C112.668 99.0477 110.062 99.6858 107.03 100.269C104.104 100.834 101.383 101.282 98.7219 101.631C93.309 102.339 87.5885 102.892 81.7163 103.278C76.2757 103.646 70.4893 103.936 64.5345 104.158L51.6984 104.531C51.7009 104.531 51.7009 104.524 51.7009 104.519L51.7438 104.372C51.88 103.911 51.991 103.487 52.0792 103.048C52.2634 102.193 52.3794 101.288 52.4349 100.362C52.614 96.9113 51.8749 93.4075 50.2859 90.2396C48.6009 86.8774 45.9853 84.1785 42.9383 82.6525C40.8498 81.5805 38.4359 81.0181 35.9717 81.0181C34.7837 81.0181 33.5982 81.1467 32.4505 81.3989C30.3671 81.8479 28.6317 82.6651 27.2974 83.8254C25.7739 85.1319 24.6994 87.0615 24.3488 89.1273C23.8418 92.1616 24.3993 95.4104 26.0514 99.0577C26.3969 99.8195 27.1435 100.268 27.9305 100.268C28.213 100.268 28.5006 100.213 28.7755 100.084L29.0807 99.9456C30.072 99.5017 30.5436 98.3616 30.1603 97.3426C29.7037 96.1394 29.391 94.8858 29.222 93.6121C29.0454 92.245 29.0707 91.1175 29.3153 90.1464C29.5322 89.2333 30.009 88.4615 30.6698 87.9545C31.3433 87.4349 32.2841 87.0793 33.462 86.9027C34.075 86.8069 34.698 86.764 35.3008 86.764C37.0765 86.764 38.7312 87.1751 40.0933 87.9546C41.9547 89.0064 43.5413 90.7972 44.5654 93.0017C45.5718 95.1533 46.0132 97.605 45.819 99.9303L45.8183 99.9303Z" fill="#BA914F"/>
</svg>
