<svg width="151" height="122" viewBox="0 0 151 122" fill="none" xmlns="http://www.w3.org/2000/svg">
<path d="M150.818 90.6004C150.545 87.5232 149.736 84.3678 148.414 81.2375C146.194 76.039 142.792 71.0527 138.015 65.9851C130.665 58.2469 121.204 51.3229 109.091 44.8251C98.3842 39.2129 87.7802 33.8983 77.5599 29.0076C67.5339 24.2127 57.0559 19.4104 45.5337 14.3176C39.5912 11.6894 34.3067 9.39658 29.3709 7.29291C26.9191 6.25369 24.3237 5.18426 21.1909 3.92306L17.0544 2.29618L14.9205 1.50414L13.7754 1.11822L13.1019 0.916438C13.0666 0.903827 13.0313 0.898781 12.996 0.883648L12.6227 0.795367C12.5773 0.782755 12.5344 0.77771 12.489 0.770143C12.3578 0.737353 12.2645 0.727267 12.0753 0.699518C11.9416 0.686907 11.8281 0.674295 11.6062 0.674295C11.5759 0.674295 11.5481 0.66925 11.5204 0.66925C11.2631 0.66925 10.5897 0.707084 9.83295 1.06778L9.56559 1.18885C9.34615 1.29731 9.15193 1.43603 8.98294 1.60755L8.76854 1.82952C7.70163 2.90657 6.99786 3.98866 6.39502 4.98997C5.78967 6.01652 5.25495 7.11127 4.79585 8.25134C3.90295 10.4886 3.33795 12.8243 3.11596 15.2005C2.66194 19.8945 3.65825 24.8081 5.91571 29.033C7.84026 32.7055 10.7232 36.1966 14.4714 39.3948C14.5219 39.4377 14.5698 39.4831 14.6202 39.5209C13.5558 39.642 12.5444 39.8059 11.5707 40.0279C8.9601 40.661 6.84139 41.5917 5.06064 42.8857C2.9015 44.4445 1.25699 46.6742 0.432153 49.1688C-0.0521325 50.5813 -0.135369 52.2914 0.212716 53.8301C0.48513 55.0711 0.994612 56.307 1.77154 57.5732C3.22187 59.9215 5.09341 61.6897 6.3798 62.8121C9.33846 65.3193 12.7462 67.5036 17.1322 69.6954C20.7265 71.4888 24.5805 73.0198 28.8939 74.3567C27.1611 74.9722 25.62 75.8196 24.3134 76.8967C22.8403 78.0923 21.6119 79.7041 20.7619 81.5453C20.0431 83.0764 19.584 84.8017 19.3595 86.8018C19.188 88.4489 19.1653 90.0379 19.2964 91.8314C19.4352 93.8719 20.2524 96.0184 21.5464 97.716C22.5603 99.0906 23.8846 100.332 25.577 101.497C28.0186 103.144 30.7251 104.41 34.3672 105.613C39.4446 107.228 45.0692 108.35 52.0817 109.142C57.2146 109.742 62.6423 110.098 69.6748 110.287C71.7002 110.338 73.7988 110.363 75.9226 110.363C79.4993 110.363 83.1921 110.292 87.2 110.148C91.7049 110.015 96.424 109.75 101.958 109.319C102.104 109.599 102.25 109.871 102.402 110.136C104.16 113.233 106.559 115.861 109.33 117.723C112.165 119.663 115.523 120.909 119.033 121.335C119.949 121.443 120.89 121.499 121.828 121.499C124.295 121.499 126.769 121.118 129.181 120.364C132.326 119.395 135.295 117.9 138.012 115.925C140.814 113.871 143.117 111.695 145.049 109.256C147.208 106.526 148.792 103.58 149.758 100.5C150.747 97.3701 151.117 93.9425 150.817 90.6003L150.818 90.6004ZM107.146 93.0067C108.17 90.8022 109.757 89.0088 111.618 87.9596C112.98 87.1802 114.633 86.769 116.411 86.769C117.014 86.769 117.637 86.8119 118.252 86.9077C119.43 87.0843 120.371 87.4399 121.044 87.9595C121.705 88.4665 122.184 89.2383 122.399 90.1514C122.644 91.12 122.669 92.2474 122.492 93.6171C122.323 94.8909 122.01 96.1445 121.554 97.3476C121.17 98.3666 121.642 99.5067 122.633 99.9506L122.939 100.089C123.214 100.215 123.504 100.273 123.786 100.273C124.571 100.273 125.317 99.8244 125.665 99.0627C127.317 95.4154 127.875 92.1639 127.368 89.1323C127.015 87.0665 125.943 85.1344 124.419 83.8304C123.087 82.6726 121.35 81.8554 119.266 81.4039C118.121 81.1517 116.93 81.023 115.745 81.023C113.281 81.023 110.867 81.588 108.778 82.6575C105.731 84.1835 103.116 86.8824 101.431 90.2446C99.8443 93.4126 99.1027 96.9161 99.2843 100.367C99.3398 101.293 99.4559 102.198 99.6375 103.053C99.7258 103.489 99.8367 103.913 99.9729 104.377L100.016 104.524C100.016 104.529 100.016 104.536 100.021 104.536L87.1847 104.163C81.2295 103.941 75.443 103.651 70.0029 103.283C64.1309 102.897 58.4104 102.344 52.9974 101.636C50.3338 101.287 47.6147 100.836 44.689 100.273C41.6571 99.6908 39.0515 99.0527 36.7131 98.3111C33.6207 97.3299 31.4717 96.3916 29.7387 95.2717C27.7461 93.9803 26.6766 92.5981 26.5555 91.1805C26.3008 88.4186 26.5303 86.0754 27.2265 84.3857C28.0816 82.2064 29.9809 81.1243 31.4262 80.5921C33.4062 79.8506 35.8604 79.4192 38.9429 79.2553C39.9721 79.2048 41.0365 79.1796 42.1993 79.1796C43.6723 79.1796 45.2992 79.2175 47.3196 79.3133C49.8495 79.4268 52.4374 79.5908 54.9397 79.7497C58.1026 79.9515 61.3741 80.1608 64.6202 80.2693H64.7312C65.8334 80.2693 66.7491 79.4092 66.7995 78.3044L66.8474 77.2828C66.8953 76.1503 66.0226 75.1868 64.8901 75.1288C57.4192 74.7681 49.7055 73.5019 41.9621 71.3806C38.1004 70.3288 34.3827 69.1307 30.9094 67.8216C28.9016 67.0851 27.1486 66.3889 25.5268 65.6928C23.5821 64.8831 21.877 64.1113 20.3005 63.3268C16.2749 61.3443 13.281 59.5004 10.8595 57.5179C9.32344 56.2694 8.21107 55.1116 7.4519 53.9715C6.92978 53.1719 6.34966 52.0066 6.62461 51.0456C6.9626 49.7971 7.7395 48.6318 8.81901 47.7389C9.88341 46.8334 11.3086 46.0994 13.0741 45.5344C15.3997 44.7726 18.0532 44.3489 21.1837 44.253C22.5357 45.103 23.87 45.8748 25.1512 46.571C33.3182 50.9674 41.8895 53.659 48.4422 55.5154C52.0314 56.5294 55.9563 57.4727 60.4512 58.3984C64.4667 59.2283 68.5374 59.9572 72.5454 60.5575C72.6463 60.5702 72.7472 60.5777 72.8506 60.5777C73.8242 60.5777 74.6869 59.8866 74.871 58.8978L74.934 58.5674C75.1383 57.4778 74.4422 56.4209 73.3626 56.1788C64.6881 54.2291 57.0887 52.1809 50.1369 49.9285C41.8363 47.2422 34.7353 44.2028 28.4222 40.6437C24.7648 38.5527 21.7203 36.3987 19.1297 34.0755C16.1534 31.4019 13.9236 28.5769 12.4982 25.6761C10.9369 22.5081 10.2988 19.1511 10.6519 15.9652C10.8259 14.2979 11.2371 12.6837 11.8777 11.1451C12.1854 10.3909 12.5562 9.66191 12.9573 8.99857L14.3168 9.49799L18.3399 11.0744L26.4217 14.3686C31.3831 16.4016 36.6724 18.6112 42.5846 21.126C52.4569 25.3383 62.9724 29.9239 74.7392 35.1374L74.8931 35.208C85.3381 39.8566 96.1435 44.6645 106.571 49.7514C111.84 52.3368 116.817 55.2551 121.347 58.4356C126.276 61.8862 130.599 65.6244 134.198 69.5387C138.375 74.1369 141.359 78.7931 143.062 83.366C145.075 88.6352 145.269 93.9751 143.622 98.4292C141.654 103.903 137.26 107.85 133.923 110.199C131.63 111.77 129.327 112.91 127.098 113.576C125.257 114.126 123.413 114.406 121.622 114.406C121.019 114.406 120.419 114.373 119.836 114.31C117.44 114.05 115.15 113.225 113.215 111.927C111.263 110.635 109.563 108.829 108.294 106.7C107.661 105.641 107.126 104.508 106.695 103.33C106.584 103.038 106.493 102.748 106.395 102.455C106.299 102.15 106.221 101.885 106.163 101.62C106.031 101.075 105.946 100.51 105.903 99.9353C105.711 97.6046 106.152 95.153 107.146 93.0068L107.146 93.0067Z" fill="#BA914F"/>
</svg>
