<svg width="105" height="105" viewBox="0 0 105 105" fill="none" xmlns="http://www.w3.org/2000/svg">
<path d="M41.5625 13.125C49.1046 13.125 56.3378 16.1211 61.6708 21.4542C67.0039 26.7872 70 34.0204 70 41.5625C70 48.6063 67.4187 55.0812 63.175 60.0687L64.3563 61.25H67.8125L89.6875 83.125L83.125 89.6875L61.25 67.8125V64.3563L60.0687 63.175C54.9086 67.5796 48.3468 69.9996 41.5625 70C34.0204 70 26.7872 67.0039 21.4542 61.6708C16.1211 56.3378 13.125 49.1046 13.125 41.5625C13.125 34.0204 16.1211 26.7872 21.4542 21.4542C26.7872 16.1211 34.0204 13.125 41.5625 13.125ZM41.5625 21.875C30.625 21.875 21.875 30.625 21.875 41.5625C21.875 52.5 30.625 61.25 41.5625 61.25C52.5 61.25 61.25 52.5 61.25 41.5625C61.25 30.625 52.5 21.875 41.5625 21.875Z" fill="#BA914F"/>
</svg>
