<svg width="105" height="105" viewBox="0 0 105 105" fill="none" xmlns="http://www.w3.org/2000/svg">
<path d="M52.5 87.5C61.7826 87.5 70.685 83.8125 77.2487 77.2487C83.8125 70.685 87.5 61.7826 87.5 52.5C87.5 43.2174 83.8125 34.315 77.2487 27.7513C70.685 21.1875 61.7826 17.5 52.5 17.5C43.2174 17.5 34.315 21.1875 27.7513 27.7513C21.1875 34.315 17.5 43.2174 17.5 52.5C17.5 61.7826 21.1875 70.685 27.7513 77.2487C34.315 83.8125 43.2174 87.5 52.5 87.5ZM52.5 96.25C28.3369 96.25 8.75 76.6631 8.75 52.5C8.75 28.3369 28.3369 8.75 52.5 8.75C76.6631 8.75 96.25 28.3369 96.25 52.5C96.25 76.6631 76.6631 96.25 52.5 96.25Z" fill="#BA914F"/>
<path d="M74.375 39.1432C72.765 39.8432 71.0369 40.3244 69.2212 40.5344C71.0762 39.4407 72.4938 37.7082 73.1675 35.6475C71.3998 36.6777 69.4711 37.4025 67.4625 37.7913C66.6176 36.9057 65.6011 36.2015 64.4751 35.7216C63.3491 35.2417 62.1371 34.9962 60.9131 35C55.9563 35 51.94 38.9594 51.94 43.8375C51.94 44.5288 52.0188 45.2025 52.1719 45.85C48.6164 45.6812 45.1352 44.7731 41.9503 43.1837C38.7655 41.5943 35.9469 39.3584 33.6744 36.6188C32.8762 37.9624 32.456 39.4967 32.4581 41.0594C32.4581 44.1219 34.0462 46.8344 36.4525 48.4138C35.0282 48.3691 33.6344 47.99 32.3837 47.3069V47.4163C32.3973 49.4702 33.1222 51.4559 34.4353 53.0353C35.7483 54.6148 37.5681 55.6903 39.585 56.0788C38.2609 56.4289 36.8755 56.4797 35.5294 56.2275C36.1162 57.9945 37.2386 59.5348 38.7407 60.6348C40.2429 61.7348 42.0502 62.3397 43.9119 62.3657C40.718 64.8269 36.7965 66.1566 32.7644 66.1457C32.0425 66.1457 31.3294 66.1019 30.625 66.0232C34.7396 68.6276 39.5105 70.0069 44.38 70C60.8913 70 69.9169 56.5338 69.9169 44.8525L69.8862 43.7063C71.6463 42.4694 73.1672 40.9233 74.375 39.1432Z" fill="#BA914F"/>
</svg>
