<svg width="91" height="105" viewBox="0 0 91 105" fill="none" xmlns="http://www.w3.org/2000/svg">
<path fill-rule="evenodd" clip-rule="evenodd" d="M40.8682 70.1345C38.6878 69.4605 36.4971 69.1106 36.0811 66.3879C36.0182 65.977 35.0542 65.6321 34.4552 65.3832C26.8373 62.2237 21.2901 56.8526 17.8488 49.4586C16.7455 47.0874 16.4259 44.3521 15.7681 41.7789C15.6322 41.2469 15.5869 40.6915 15.5055 40.2012C13.7588 40.03 12.132 39.9607 10.5354 39.6967C4.37651 38.6811 0.597116 34.3113 0.380622 28.0958C0.322734 26.4254 0.14991 24.7599 0.0374754 23.0913C0.00978873 22.657 -0.00615027 22.2185 0.00223885 21.7842C0.0525779 19.2929 1.66339 17.0571 3.63838 16.7203C5.54032 16.3955 7.735 18.1059 8.55136 20.5448C9.66886 23.8807 12.8754 28.3339 15.7489 30.5404C19.9327 17.3385 28.5139 9.12941 42.3252 7.11531C42.1943 5.72637 41.8445 4.2898 42.0081 2.91264C42.1029 2.12755 42.9141 1.284 43.6172 0.742887C45.0661 -0.370426 47.0761 -0.185009 48.4857 0.982591C50.1913 2.39575 50.3499 4.18227 49.0268 7.05782C62.7413 9.2218 71.2561 17.2564 75.5344 30.406C78.3248 27.5787 80.8804 24.6733 82.3047 20.9264C82.5883 20.1806 82.8752 19.388 83.3644 18.78C84.4399 17.4378 85.6749 16.2611 87.659 16.8031C89.2212 17.2307 90.9378 19.1383 90.863 21.0175C90.7179 24.6023 90.6357 28.2612 89.8336 31.7299C88.6767 36.7395 84.3115 39.6199 78.3867 40.0001C77.5805 40.0502 76.7701 40.0076 75.89 40.0076C74.6475 52.346 67.6153 60.2578 56.9277 65.5452C56.994 68.3649 56.6534 68.7282 52.3294 70.2616C52.6532 70.6759 52.9619 71.0484 53.2455 71.4426C56.2053 75.5593 55.0241 81.075 50.5574 83.5037C49.517 84.0699 49.1949 84.6587 49.2041 85.7979C49.2628 92.1512 49.231 98.5055 49.231 105H44.4271C44.3776 104.376 44.3264 103.727 44.2643 102.95H39.9789V99.9387H44.2484V97.3629H39.9579V94.3537H44.329C44.329 91.0764 44.3516 87.9262 44.2921 84.7774C44.2862 84.4934 43.8038 84.1368 43.4648 83.9538C37.8764 80.938 36.7162 75.6971 40.5486 70.7177C40.6602 70.5774 40.7265 70.4036 40.8691 70.1355L40.8682 70.1345ZM61.6015 57.0487C56.4998 55.5436 51.6027 54.0771 46.6873 52.6782C46.0808 52.5061 45.3341 52.5763 44.7158 52.7533C40.2197 54.0437 35.7405 55.3875 31.2597 56.7247C30.8234 56.8549 30.4081 57.0596 29.8896 57.2684C39.3524 65.1101 53.4311 64.3008 61.6012 57.0487L61.6015 57.0487ZM45.2853 11.7742C34.9005 11.2606 24.6828 19.7878 22.4998 26.8697C26.8934 26.6517 31.2628 26.4521 35.6288 26.1907C36.0415 26.1656 36.5886 25.8432 36.8075 25.4949C39.6155 21.0167 42.3715 16.5074 45.2853 11.7743L45.2853 11.7742ZM21.7416 28.4782C17.0812 38.4046 22.177 51.7985 28.4845 55.5766C29.2421 51.2127 30.0097 46.8638 30.7321 42.5074C30.8076 42.0547 30.7883 41.4525 30.5467 41.1009C27.659 36.9015 24.7235 32.7364 21.7418 28.4786L21.7416 28.4782ZM46.4708 11.8518C49.3527 16.5381 52.1658 21.1359 55.0191 25.7119C55.1793 25.9708 55.6232 26.1738 55.9462 26.1921C60.2367 26.4327 64.5279 26.634 68.867 26.8486C66.262 19.225 55.8757 11.2479 46.4703 11.8517L46.4708 11.8518ZM63.2014 55.4393C70.7067 49.8026 73.6197 36.2038 69.6135 28.9738C66.7954 32.9945 63.9967 36.9684 61.2306 40.9665C61.0058 41.2922 60.8539 41.7925 60.9194 42.1725C61.6493 46.5766 62.4261 50.9721 63.2014 55.4388L63.2014 55.4393ZM46.2307 37.1901C46.2307 41.7385 46.198 45.7552 46.2811 49.7682C46.2886 50.1574 46.9422 50.7345 47.4078 50.8807C50.382 51.8203 53.3863 52.6638 56.3813 53.5407C57.8269 53.9658 59.2741 54.3968 60.7221 54.8244C60.7993 54.6899 60.8773 54.5538 60.9554 54.4193C56.1665 48.816 51.3777 43.2118 46.2306 37.19L46.2307 37.1901ZM31.1679 54.366C31.2644 54.4846 31.3592 54.604 31.4531 54.7226C34.7871 53.7254 38.1161 52.7115 41.4552 51.7318C45.4713 50.555 45.4739 50.5684 45.4739 46.3799V37.6237C40.4569 43.4969 35.8133 48.9316 31.1679 54.3662L31.1679 54.366ZM45.0376 35.7602C37.8846 33.308 31.2652 31.0388 24.1366 28.5949C26.8724 32.4611 29.2577 35.8786 31.7207 39.2395C31.985 39.6003 32.8005 39.8943 33.2149 39.7615C37.0087 38.5421 40.7681 37.2208 45.0376 35.76V35.7602ZM46.6107 71.101C43.7398 71.0976 41.3521 73.4704 41.3478 76.3252C41.3445 79.1807 43.7271 81.561 46.5957 81.5636C49.4642 81.5662 51.8542 79.195 51.8577 76.3393C51.861 73.4822 49.4784 71.1044 46.6107 71.101ZM47.4429 35.7559C51.47 37.1507 54.9962 38.3935 58.5458 39.5703C58.9317 39.6981 59.6716 39.6137 59.868 39.3489C62.2732 36.0875 64.6057 32.7734 66.9598 29.4743C66.8566 29.3716 66.7543 29.2697 66.6511 29.1678C60.4093 31.3076 54.1664 33.4489 47.4429 35.7557L47.4429 35.7559ZM15.1386 34.2417C15.2754 34.1114 15.4138 33.9819 15.5539 33.85C15.2745 33.3806 15.0665 32.8477 14.7032 32.4535C11.4111 28.8771 8.0267 25.4035 6.50309 20.5686C6.23378 19.7126 4.77986 19.2265 3.87123 18.5717C3.21013 19.5472 2.07919 20.4901 1.99951 21.5099C1.88793 22.9765 2.24448 24.6527 2.92573 25.9723C5.488 30.9351 10.3204 32.6154 15.1385 34.2417H15.1386ZM75.5721 33.7397C75.7348 33.8675 75.8967 33.9944 76.0578 34.1231C79.8357 32.9855 83.4424 31.4964 86.2403 28.5689C88.0634 26.663 89.3771 24.3913 88.9845 21.696C88.8242 20.586 87.7411 19.608 87.0758 18.5698C86.1253 19.3432 84.9154 19.9504 84.2771 20.9275C82.9264 22.9879 82.0329 25.3449 80.6554 27.3844C79.4825 29.1249 77.8783 30.5766 76.5076 32.1902C76.12 32.6437 75.8801 33.2184 75.5722 33.7395L75.5721 33.7397ZM45.0096 36.9627C44.9408 36.8658 44.8728 36.7673 44.804 36.6704C40.7727 38.0593 36.7424 39.4482 32.957 40.752C32.3404 44.8837 31.7673 48.7182 31.1952 52.5518C31.3202 52.5936 31.4444 52.6353 31.5702 52.6779C36.0519 47.4413 40.5321 42.2012 45.0095 36.9628L45.0096 36.9627ZM46.3116 35.446C48.9267 32.3799 51.2154 29.694 53.4437 27.0815C51.0829 23.161 48.8226 19.4052 46.3116 15.2342V35.446ZM47.2135 36.5417C47.1447 36.6545 47.0751 36.7673 47.0054 36.8808C51.4 42.0206 55.7962 47.1621 60.527 52.6962C59.8802 48.2938 59.3114 44.426 58.73 40.4681C54.9665 39.1845 51.0913 37.8622 47.2135 36.5419L47.2135 36.5417ZM45.3275 34.9198V15.3478C43.9793 17.5569 42.8316 19.3961 41.7234 21.2577C40.6243 23.1018 39.5606 24.966 38.4506 26.8769C40.642 29.44 42.8645 32.0393 45.3277 34.9198H45.3275ZM2.1255 28.554C2.20855 34.5014 7.2045 39.3698 15.3015 38.2666C15.825 36.7332 15.1774 36.0707 13.6739 35.6483C9.28028 34.4155 5.35226 32.3367 2.12548 28.554H2.1255ZM88.8539 28.5239C85.6969 32.2323 81.9106 34.3169 77.6529 35.5271C75.8911 36.0274 75.537 36.8776 76.1184 38.4069C83.3671 38.9807 88.2432 35.2925 88.854 28.5239H88.8539ZM64.9365 28.9215C64.9029 28.8338 64.8694 28.7478 64.8358 28.6618C61.3651 28.3628 57.8934 28.0537 54.4209 27.7806C54.1625 27.7606 53.8026 27.9218 53.6306 28.118C51.8797 30.1275 50.1573 32.1586 48.429 34.1858C48.5003 34.2935 48.5699 34.4013 48.6396 34.509C54.071 32.6465 59.5025 30.7831 64.9365 28.9215L64.9365 28.9215ZM43.3967 34.3688C43.4596 34.2769 43.5217 34.1842 43.5821 34.0931C41.7011 31.8924 39.8177 29.6908 38.2832 27.8969C34.3367 28.1374 30.8373 28.3504 27.3372 28.5626C27.3153 28.6528 27.2952 28.7421 27.2726 28.8323C32.6486 30.6773 38.0214 32.5231 43.3966 34.3689L43.3967 34.3688Z" fill="#BF503F"></path>
</svg>
